<?xml version="1.0" standalone="no"?>
<svg xmlns:xlink="http://www.w3.org/1999/xlink" id="wave" style="transform:rotate(180deg); transition: 0.3s" viewBox="0 0 1440 100" version="1.1" xmlns="http://www.w3.org/2000/svg"><defs><linearGradient id="sw-gradient-0" x1="0" x2="0" y1="1" y2="0"><stop stop-color="rgba(14, 15, 18, 1)" offset="0%"/><stop stop-color="rgba(14, 15, 18, 1)" offset="100%"/></linearGradient></defs><path style="transform:translate(0, 0px); opacity:1" fill="url(#sw-gradient-0)" d="M0,60L21.8,58.3C43.6,57,87,53,131,58.3C174.5,63,218,77,262,83.3C305.5,90,349,90,393,88.3C436.4,87,480,83,524,81.7C567.3,80,611,80,655,73.3C698.2,67,742,53,785,53.3C829.1,53,873,67,916,66.7C960,67,1004,53,1047,53.3C1090.9,53,1135,67,1178,68.3C1221.8,70,1265,60,1309,61.7C1352.7,63,1396,77,1440,75C1483.6,73,1527,57,1571,53.3C1614.5,50,1658,60,1702,68.3C1745.5,77,1789,83,1833,86.7C1876.4,90,1920,90,1964,85C2007.3,80,2051,70,2095,66.7C2138.2,63,2182,67,2225,58.3C2269.1,50,2313,30,2356,33.3C2400,37,2444,63,2487,73.3C2530.9,83,2575,77,2618,70C2661.8,63,2705,57,2749,45C2792.7,33,2836,17,2880,23.3C2923.6,30,2967,60,3011,71.7C3054.5,83,3098,77,3120,73.3L3141.8,70L3141.8,100L3120,100C3098.2,100,3055,100,3011,100C2967.3,100,2924,100,2880,100C2836.4,100,2793,100,2749,100C2705.5,100,2662,100,2618,100C2574.5,100,2531,100,2487,100C2443.6,100,2400,100,2356,100C2312.7,100,2269,100,2225,100C2181.8,100,2138,100,2095,100C2050.9,100,2007,100,1964,100C1920,100,1876,100,1833,100C1789.1,100,1745,100,1702,100C1658.2,100,1615,100,1571,100C1527.3,100,1484,100,1440,100C1396.4,100,1353,100,1309,100C1265.5,100,1222,100,1178,100C1134.5,100,1091,100,1047,100C1003.6,100,960,100,916,100C872.7,100,829,100,785,100C741.8,100,698,100,655,100C610.9,100,567,100,524,100C480,100,436,100,393,100C349.1,100,305,100,262,100C218.2,100,175,100,131,100C87.3,100,44,100,22,100L0,100Z"/></svg>