<?xml version="1.0" standalone="no"?>
<svg xmlns:xlink="http://www.w3.org/1999/xlink" id="wave" style="transform:rotate(0deg); transition: 0.3s" viewBox="0 0 1440 490" version="1.1" xmlns="http://www.w3.org/2000/svg"><defs><linearGradient id="sw-gradient-0" x1="0" x2="0" y1="1" y2="0"><stop stop-color="rgba(0, 0, 0, 1)" offset="0%"/><stop stop-color="rgba(37.022, 39.433, 57.24, 1)" offset="100%"/></linearGradient></defs><path style="transform:translate(0, 0px); opacity:1" fill="url(#sw-gradient-0)" d="M0,392L26.7,351.2C53.3,310,107,229,160,196C213.3,163,267,180,320,212.3C373.3,245,427,294,480,326.7C533.3,359,587,376,640,334.8C693.3,294,747,196,800,179.7C853.3,163,907,229,960,245C1013.3,261,1067,229,1120,187.8C1173.3,147,1227,98,1280,89.8C1333.3,82,1387,114,1440,114.3C1493.3,114,1547,82,1600,73.5C1653.3,65,1707,82,1760,138.8C1813.3,196,1867,294,1920,285.8C1973.3,278,2027,163,2080,171.5C2133.3,180,2187,310,2240,367.5C2293.3,425,2347,408,2400,375.7C2453.3,343,2507,294,2560,285.8C2613.3,278,2667,310,2720,277.7C2773.3,245,2827,147,2880,114.3C2933.3,82,2987,114,3040,163.3C3093.3,212,3147,278,3200,285.8C3253.3,294,3307,245,3360,220.5C3413.3,196,3467,196,3520,171.5C3573.3,147,3627,98,3680,106.2C3733.3,114,3787,180,3813,212.3L3840,245L3840,490L3813.3,490C3786.7,490,3733,490,3680,490C3626.7,490,3573,490,3520,490C3466.7,490,3413,490,3360,490C3306.7,490,3253,490,3200,490C3146.7,490,3093,490,3040,490C2986.7,490,2933,490,2880,490C2826.7,490,2773,490,2720,490C2666.7,490,2613,490,2560,490C2506.7,490,2453,490,2400,490C2346.7,490,2293,490,2240,490C2186.7,490,2133,490,2080,490C2026.7,490,1973,490,1920,490C1866.7,490,1813,490,1760,490C1706.7,490,1653,490,1600,490C1546.7,490,1493,490,1440,490C1386.7,490,1333,490,1280,490C1226.7,490,1173,490,1120,490C1066.7,490,1013,490,960,490C906.7,490,853,490,800,490C746.7,490,693,490,640,490C586.7,490,533,490,480,490C426.7,490,373,490,320,490C266.7,490,213,490,160,490C106.7,490,53,490,27,490L0,490Z"/><defs><linearGradient id="sw-gradient-1" x1="0" x2="0" y1="1" y2="0"><stop stop-color="rgba(0, 0, 0, 1)" offset="0%"/><stop stop-color="rgba(50.084, 51.878, 61.793, 1)" offset="100%"/></linearGradient></defs><path style="transform:translate(0, 50px); opacity:0.9" fill="url(#sw-gradient-1)" d="M0,98L26.7,130.7C53.3,163,107,229,160,245C213.3,261,267,229,320,253.2C373.3,278,427,359,480,375.7C533.3,392,587,343,640,343C693.3,343,747,392,800,400.2C853.3,408,907,376,960,334.8C1013.3,294,1067,245,1120,187.8C1173.3,131,1227,65,1280,40.8C1333.3,16,1387,33,1440,81.7C1493.3,131,1547,212,1600,253.2C1653.3,294,1707,294,1760,318.5C1813.3,343,1867,392,1920,351.2C1973.3,310,2027,180,2080,122.5C2133.3,65,2187,82,2240,130.7C2293.3,180,2347,261,2400,302.2C2453.3,343,2507,343,2560,334.8C2613.3,327,2667,310,2720,294C2773.3,278,2827,261,2880,253.2C2933.3,245,2987,245,3040,277.7C3093.3,310,3147,376,3200,375.7C3253.3,376,3307,310,3360,253.2C3413.3,196,3467,147,3520,155.2C3573.3,163,3627,229,3680,236.8C3733.3,245,3787,196,3813,171.5L3840,147L3840,490L3813.3,490C3786.7,490,3733,490,3680,490C3626.7,490,3573,490,3520,490C3466.7,490,3413,490,3360,490C3306.7,490,3253,490,3200,490C3146.7,490,3093,490,3040,490C2986.7,490,2933,490,2880,490C2826.7,490,2773,490,2720,490C2666.7,490,2613,490,2560,490C2506.7,490,2453,490,2400,490C2346.7,490,2293,490,2240,490C2186.7,490,2133,490,2080,490C2026.7,490,1973,490,1920,490C1866.7,490,1813,490,1760,490C1706.7,490,1653,490,1600,490C1546.7,490,1493,490,1440,490C1386.7,490,1333,490,1280,490C1226.7,490,1173,490,1120,490C1066.7,490,1013,490,960,490C906.7,490,853,490,800,490C746.7,490,693,490,640,490C586.7,490,533,490,480,490C426.7,490,373,490,320,490C266.7,490,213,490,160,490C106.7,490,53,490,27,490L0,490Z"/><defs><linearGradient id="sw-gradient-2" x1="0" x2="0" y1="1" y2="0"><stop stop-color="rgba(0, 0, 0, 1)" offset="0%"/><stop stop-color="rgba(33.12, 50.441, 64.07, 1)" offset="100%"/></linearGradient></defs><path style="transform:translate(0, 100px); opacity:0.8" fill="url(#sw-gradient-2)" d="M0,294L26.7,310.3C53.3,327,107,359,160,334.8C213.3,310,267,229,320,220.5C373.3,212,427,278,480,261.3C533.3,245,587,147,640,98C693.3,49,747,49,800,114.3C853.3,180,907,310,960,343C1013.3,376,1067,310,1120,261.3C1173.3,212,1227,180,1280,163.3C1333.3,147,1387,147,1440,155.2C1493.3,163,1547,180,1600,179.7C1653.3,180,1707,163,1760,196C1813.3,229,1867,310,1920,318.5C1973.3,327,2027,261,2080,261.3C2133.3,261,2187,327,2240,367.5C2293.3,408,2347,425,2400,416.5C2453.3,408,2507,376,2560,326.7C2613.3,278,2667,212,2720,163.3C2773.3,114,2827,82,2880,73.5C2933.3,65,2987,82,3040,138.8C3093.3,196,3147,294,3200,351.2C3253.3,408,3307,425,3360,383.8C3413.3,343,3467,245,3520,220.5C3573.3,196,3627,245,3680,277.7C3733.3,310,3787,327,3813,334.8L3840,343L3840,490L3813.3,490C3786.7,490,3733,490,3680,490C3626.7,490,3573,490,3520,490C3466.7,490,3413,490,3360,490C3306.7,490,3253,490,3200,490C3146.7,490,3093,490,3040,490C2986.7,490,2933,490,2880,490C2826.7,490,2773,490,2720,490C2666.7,490,2613,490,2560,490C2506.7,490,2453,490,2400,490C2346.7,490,2293,490,2240,490C2186.7,490,2133,490,2080,490C2026.7,490,1973,490,1920,490C1866.7,490,1813,490,1760,490C1706.7,490,1653,490,1600,490C1546.7,490,1493,490,1440,490C1386.7,490,1333,490,1280,490C1226.7,490,1173,490,1120,490C1066.7,490,1013,490,960,490C906.7,490,853,490,800,490C746.7,490,693,490,640,490C586.7,490,533,490,480,490C426.7,490,373,490,320,490C266.7,490,213,490,160,490C106.7,490,53,490,27,490L0,490Z"/></svg>